<svg height="1582" width="720" xmlns="http://www.w3.org/2000/svg">
<rect height="1582" fill="#555" width="720"></rect>
<text fill="#7f7" font-family="Courier New" font-size="12" xml:space="preserve">
<tspan x="10" y="26">13 megabytes installed</tspan>
<tspan x="10" y="42"></tspan>
<tspan x="10" y="58">node_modules</tspan>
<tspan x="10" y="74">├─┬ d@1.0.0 </tspan>
<tspan x="10" y="90">│ └─┬ es5-ext@0.10.15 </tspan>
<tspan x="10" y="106">│   ├── es6-iterator@2.0.1 </tspan>
<tspan x="10" y="122">│   └── es6-symbol@3.1.1 </tspan>
<tspan x="10" y="138">├── minimist@1.2.0 </tspan>
<tspan x="10" y="154">├─┬ mkdirp@0.5.1 </tspan>
<tspan x="10" y="170">│ └── minimist@0.0.8 </tspan>
<tspan x="10" y="186">├── prettysize@0.0.3 </tspan>
<tspan x="10" y="202">├─┬ read-torrent@1.3.0 </tspan>
<tspan x="10" y="218">│ ├─┬ magnet-uri@2.0.1 </tspan>
<tspan x="10" y="234">│ │ └── thirty-two@0.0.2 </tspan>
<tspan x="10" y="250">│ ├─┬ parse-torrent@4.1.0 </tspan>
<tspan x="10" y="266">│ │ ├─┬ magnet-uri@4.2.3 </tspan>
<tspan x="10" y="282">│ │ │ └── flatten@0.0.1 </tspan>
<tspan x="10" y="298">│ │ └─┬ parse-torrent-file@2.1.4 </tspan>
<tspan x="10" y="314">│ │   └─┬ simple-sha1@2.1.0 </tspan>
<tspan x="10" y="330">│ │     └── rusha@0.8.5 </tspan>
<tspan x="10" y="346">│ ├─┬ request@2.16.6 </tspan>
<tspan x="10" y="362">│ │ ├── aws-sign@0.2.0 </tspan>
<tspan x="10" y="378">│ │ ├── cookie-jar@0.2.0 </tspan>
<tspan x="10" y="394">│ │ ├── forever-agent@0.2.0 </tspan>
<tspan x="10" y="410">│ │ ├─┬ form-data@0.0.10 </tspan>
<tspan x="10" y="426">│ │ │ ├── async@0.2.10 </tspan>
<tspan x="10" y="442">│ │ │ └─┬ combined-stream@0.0.7 </tspan>
<tspan x="10" y="458">│ │ │   └── delayed-stream@0.0.5 </tspan>
<tspan x="10" y="474">│ │ ├─┬ hawk@0.10.2 </tspan>
<tspan x="10" y="490">│ │ │ ├── boom@0.3.8 </tspan>
<tspan x="10" y="506">│ │ │ ├── cryptiles@0.1.3 </tspan>
<tspan x="10" y="522">│ │ │ ├── hoek@0.7.6 </tspan>
<tspan x="10" y="538">│ │ │ └── sntp@0.1.4 </tspan>
<tspan x="10" y="554">│ │ ├── json-stringify-safe@3.0.0 </tspan>
<tspan x="10" y="570">│ │ ├── mime@1.2.11 </tspan>
<tspan x="10" y="586">│ │ ├── node-uuid@1.4.8 </tspan>
<tspan x="10" y="602">│ │ ├── oauth-sign@0.2.0 </tspan>
<tspan x="10" y="618">│ │ ├── qs@0.5.6 </tspan>
<tspan x="10" y="634">│ │ └── tunnel-agent@0.2.0 </tspan>
<tspan x="10" y="650">│ └── xtend@4.0.1 </tspan>
<tspan x="10" y="666">├── single-line-log@0.4.1 </tspan>
<tspan x="10" y="682">└─┬ torrent-stream@0.18.1 </tspan>
<tspan x="10" y="698">  ├── bitfield@0.1.0 </tspan>
<tspan x="10" y="714">  ├─┬ bittorrent-dht@3.2.6 </tspan>
<tspan x="10" y="730">  │ ├── addr-to-ip-port@1.4.2 </tspan>
<tspan x="10" y="746">  │ ├── bencode@0.7.0 </tspan>
<tspan x="10" y="762">  │ ├── buffer-equal@0.0.1 </tspan>
<tspan x="10" y="778">  │ ├─┬ debug@2.6.4 </tspan>
<tspan x="10" y="794">  │ │ └── ms@0.7.3 </tspan>
<tspan x="10" y="810">  │ ├── inherits@2.0.3 </tspan>
<tspan x="10" y="826">  │ ├─┬ is-ip@1.0.0 </tspan>
<tspan x="10" y="842">  │ │ └── ip-regex@1.0.3 </tspan>
<tspan x="10" y="858">  │ ├── k-bucket@0.5.0 </tspan>
<tspan x="10" y="874">  │ ├── network-address@1.1.2 </tspan>
<tspan x="10" y="890">  │ ├─┬ once@1.4.0 </tspan>
<tspan x="10" y="906">  │ │ └── wrappy@1.0.2 </tspan>
<tspan x="10" y="922">  │ ├── run-parallel@1.1.6 </tspan>
<tspan x="10" y="938">  │ ├─┬ simple-get@1.4.3 </tspan>
<tspan x="10" y="954">  │ │ └── unzip-response@1.0.2 </tspan>
<tspan x="10" y="970">  │ └── string2compact@1.2.2 </tspan>
<tspan x="10" y="986">  ├─┬ bittorrent-tracker@2.12.1 </tspan>
<tspan x="10" y="1002">  │ ├── bencode@0.6.0 </tspan>
<tspan x="10" y="1018">  │ ├── bn.js@1.3.0 </tspan>
<tspan x="10" y="1034">  │ ├── extend.js@0.0.2 </tspan>
<tspan x="10" y="1050">  │ ├─┬ portfinder@0.3.0 </tspan>
<tspan x="10" y="1066">  │ │ └── mkdirp@0.0.7 </tspan>
<tspan x="10" y="1082">  │ └── run-series@1.1.4 </tspan>
<tspan x="10" y="1098">  ├── bncode@0.5.3 </tspan>
<tspan x="10" y="1114">  ├─┬ compact2string@1.4.0 </tspan>
<tspan x="10" y="1130">  │ └── ipaddr.js@1.3.0 </tspan>
<tspan x="10" y="1146">  ├─┬ end-of-stream@0.1.5 </tspan>
<tspan x="10" y="1162">  │ └── once@1.3.3 </tspan>
<tspan x="10" y="1178">  ├── hat@0.0.3 </tspan>
<tspan x="10" y="1194">  ├── ip@0.3.3 </tspan>
<tspan x="10" y="1210">  ├─┬ ip-set@1.0.1 </tspan>
<tspan x="10" y="1226">  │ └── ip@1.1.5 </tspan>
<tspan x="10" y="1242">  ├── mkdirp@0.3.5 </tspan>
<tspan x="10" y="1258">  ├─┬ peer-wire-swarm@0.9.2 </tspan>
<tspan x="10" y="1274">  │ ├── fifo@0.1.4 </tspan>
<tspan x="10" y="1290">  │ ├─┬ peer-wire-protocol@0.7.0 </tspan>
<tspan x="10" y="1306">  │ │ ├── bncode@0.2.3 </tspan>
<tspan x="10" y="1322">  │ │ └─┬ readable-stream@1.1.14 </tspan>
<tspan x="10" y="1338">  │ │   ├── core-util-is@1.0.2 </tspan>
<tspan x="10" y="1354">  │ │   ├── isarray@0.0.1 </tspan>
<tspan x="10" y="1370">  │ │   └── string_decoder@0.10.31 </tspan>
<tspan x="10" y="1386">  │ └── speedometer@0.1.4 </tspan>
<tspan x="10" y="1402">  ├── random-access-file@0.3.2 </tspan>
<tspan x="10" y="1418">  ├─┬ rimraf@2.6.1 </tspan>
<tspan x="10" y="1434">  │ └─┬ glob@7.1.1 </tspan>
<tspan x="10" y="1450">  │   ├── fs.realpath@1.0.0 </tspan>
<tspan x="10" y="1466">  │   ├── inflight@1.0.6 </tspan>
<tspan x="10" y="1482">  │   ├─┬ minimatch@3.0.3 </tspan>
<tspan x="10" y="1498">  │   │ └─┬ brace-expansion@1.1.7 </tspan>
<tspan x="10" y="1514">  │   │   ├── balanced-match@0.4.2 </tspan>
<tspan x="10" y="1530">  │   │   └── concat-map@0.0.1 </tspan>
<tspan x="10" y="1546">  │   └── path-is-absolute@1.0.1 </tspan>
<tspan x="10" y="1562">  └── thunky@0.1.0</tspan>
</text>
</svg>
